<?xml version="1.0" encoding="iso-8859-1"?>
<!-- Generator: Adobe Illustrator 19.0.0, SVG Export Plug-In . SVG Version: 6.00 Build 0)  -->
<svg version="1.1" id="Capa_1" xmlns="http://www.w3.org/2000/svg" xmlns:xlink="http://www.w3.org/1999/xlink" x="0px" y="0px"
	 viewBox="0 0 511.998 511.998" style="enable-background:new 0 0 511.998 511.998;" xml:space="preserve">
<circle style="fill:#F23466;" cx="170.666" cy="181.149" r="170.666"/>
<circle style="fill:#65CDEF;" cx="255.008" cy="330.849" r="170.666"/>
<circle style="fill:#FFC433;" cx="341.332" cy="181.149" r="170.666"/>
<path style="fill:#342E30;" d="M341.302,183.592c-25.32-14.869-54.808-23.405-86.293-23.405c-30.673,0-59.451,8.098-84.326,22.262
	c0.47,62.623,34.658,117.219,85.316,146.525C306.35,299.847,340.428,245.736,341.302,183.592z"/>
<g>
	<path style="opacity:0.5;fill:#F23466;enable-background:new    ;" d="M255.009,160.188c31.481,0,60.966,8.534,86.283,23.399
		c0.011-0.815,0.042-1.624,0.042-2.441c0-63.17-34.322-118.319-85.333-147.829c-51.011,29.509-85.333,84.659-85.333,147.829
		c0,0.436,0.019,0.867,0.022,1.302C195.562,168.284,224.339,160.188,255.009,160.188z"/>
	<path style="opacity:0.5;fill:#F23466;enable-background:new    ;" d="M170.683,182.445c-50.898,28.987-85.43,83.406-86.31,145.962
		c25.32,14.869,54.808,23.405,86.293,23.405c31.086,0,60.225-8.32,85.326-22.843C205.337,299.662,171.151,245.066,170.683,182.445z"
		/>
</g>
<path style="opacity:0.5;fill:#65CDEF;enable-background:new    ;" d="M341.302,183.596c-0.876,62.141-34.95,116.248-85.297,145.375
	c25.101,14.523,54.241,22.841,85.328,22.841c30.673,0,59.451-8.098,84.326-22.262C425.192,267.326,391.425,213.035,341.302,183.596z
	"/>
<g>
</g>
<g>
</g>
<g>
</g>
<g>
</g>
<g>
</g>
<g>
</g>
<g>
</g>
<g>
</g>
<g>
</g>
<g>
</g>
<g>
</g>
<g>
</g>
<g>
</g>
<g>
</g>
<g>
</g>
</svg>
