<?xml version="1.0" encoding="iso-8859-1"?>
<!-- Generator: Adobe Illustrator 19.0.0, SVG Export Plug-In . SVG Version: 6.00 Build 0)  -->
<svg version="1.1" id="Capa_1" xmlns="http://www.w3.org/2000/svg" xmlns:xlink="http://www.w3.org/1999/xlink" x="0px" y="0px"
	 viewBox="0 0 512 512" style="enable-background:new 0 0 512 512;" xml:space="preserve">
<path style="fill:#FF9811;" d="M410.605,507.324c-5.058,2.969-10.934,4.676-17.192,4.676c-5.865,0-11.389-1.5-16.23-4.127
	c-0.321-0.176-0.641-0.362-0.962-0.548c-11.917-7.003-18.185-20.73-16.23-34.415l17.265-120.459c0-5.876,4.81-10.675,10.675-10.675
	h10.955c5.876,0,10.675,4.8,10.675,10.675l7.603,52.994l9.672,67.465C428.791,486.594,422.522,500.321,410.605,507.324z"/>
<path style="fill:#FFB655;" d="M410.605,507.324c-5.058,2.969-10.934,4.676-17.192,4.676c-5.865,0-11.389-1.5-16.23-4.127
	l14.637-91.816c0-5.865,5.348-10.675,11.875-10.675h12.186c0.434,0,0.859,0.021,1.283,0.062l9.672,67.465
	C428.791,486.594,422.522,500.321,410.605,507.324z"/>
<path style="fill:#FF9811;" d="M293.622,499.494c-10.996,6.465-23.781,10.179-37.395,10.179c-13.603,0-26.388-3.714-37.384-10.179
	c-6.02-3.538-11.368-7.851-15.992-12.785c-15.299-16.292-22.571-39.205-19.292-62.055l37.55-261.969
	c0-12.765,10.437-23.213,23.213-23.213h23.823c12.765,0,23.213,10.448,23.213,23.213l15.496,108.108l22.054,153.861
	C333.179,454.413,319.545,484.267,293.622,499.494z"/>
<path style="fill:#FFB655;" d="M293.622,499.494c-10.996,6.465-23.781,10.179-37.395,10.179c-13.603,0-26.388-3.714-37.384-10.179
	c-6.02-3.538-11.368-7.851-15.992-12.785l34.395-194.721c0-12.765,12.879-23.213,28.612-23.213h29.367
	c4.127,0,8.069,0.724,11.627,2.017l22.054,153.861C333.179,454.413,319.545,484.267,293.622,499.494z"/>
<path style="fill:#884D00;" d="M511.679,162.674c0,44.056-36.484,79.775-81.492,79.775H81.813c-15.661,0-30.288-4.324-42.711-11.824
	c-5.431-3.279-10.437-7.158-14.916-11.544c-14.741-14.43-23.864-34.374-23.864-56.407C0.321,72.834,74.727,0,166.512,0h178.977
	c45.898,0,87.44,18.206,117.511,47.646c8.586,8.4,16.23,17.709,22.768,27.774C502.173,100.639,511.679,130.576,511.679,162.674z"/>
<path style="fill:#AA6100;" d="M511.679,162.674c0,44.056-36.484,79.775-81.492,79.775H81.813c-15.661,0-30.288-4.324-42.711-11.824
	c-4.324-9.724-6.713-20.461-6.713-31.747c0-89.84,74.406-162.674,166.191-162.674h178.977c41.336,0,79.144,14.772,108.211,39.215
	C502.173,100.639,511.679,130.576,511.679,162.674z"/>
<path style="fill:#884D00;" d="M510.986,352.44c0,20.264-16.778,36.681-37.477,36.681H313.318c-3.145,0-6.196-0.383-9.113-1.096
	c-6.693-1.634-12.661-5.027-17.389-9.641c-6.775-6.641-10.975-15.816-10.975-25.943c0-41.315,34.219-74.799,76.423-74.799h82.299
	c21.102,0,40.208,8.368,54.038,21.909c5.772,5.648,10.624,12.186,14.306,19.406C508.08,329.02,510.986,340.399,510.986,352.44z"/>
<path style="fill:#AA6100;" d="M510.986,352.44c0,20.264-16.778,36.681-37.477,36.681H313.318c-3.145,0-6.196-0.383-9.113-1.096
	c-0.29-1.821-0.434-3.683-0.434-5.586c0-41.315,34.219-74.799,76.423-74.799h82.299c14.844,0,28.695,4.138,40.415,11.317
	C508.08,329.02,510.986,340.399,510.986,352.44z"/>
<g>
	<circle style="fill:#884D00;" cx="387.196" cy="186.114" r="22.498"/>
	<circle style="fill:#884D00;" cx="445.383" cy="138.789" r="18.619"/>
	<circle style="fill:#884D00;" cx="349.192" cy="115.514" r="17.067"/>
	<circle style="fill:#884D00;" cx="447.71" cy="358.336" r="14.74"/>
	<circle style="fill:#884D00;" cx="483.398" cy="339.716" r="10.086"/>
</g>
<g>
</g>
<g>
</g>
<g>
</g>
<g>
</g>
<g>
</g>
<g>
</g>
<g>
</g>
<g>
</g>
<g>
</g>
<g>
</g>
<g>
</g>
<g>
</g>
<g>
</g>
<g>
</g>
<g>
</g>
</svg>
