<?xml version="1.0" encoding="iso-8859-1"?>
<!-- Generator: Adobe Illustrator 19.0.0, SVG Export Plug-In . SVG Version: 6.00 Build 0)  -->
<svg xmlns="http://www.w3.org/2000/svg" xmlns:xlink="http://www.w3.org/1999/xlink" version="1.1" id="Capa_1" x="0px" y="0px" viewBox="0 0 455 455" style="enable-background:new 0 0 455 455;" xml:space="preserve" width="512" height="512">
<g>
	<path style="fill:#98D9D5;" d="M0,0l0,455h455L0,0z M80,193.137L261.863,375H80V193.137z"/>
	<path style="fill:#6DA8D6;" d="M30,297.5H0v15h30c4.142,0,7.5-3.357,7.5-7.5S34.142,297.5,30,297.5z"/>
	<path style="fill:#6DA8D6;" d="M30,387.5H0v15h30c4.142,0,7.5-3.357,7.5-7.5S34.142,387.5,30,387.5z"/>
	<path style="fill:#6DA8D6;" d="M30,342.5H0v15h30c4.142,0,7.5-3.357,7.5-7.5S34.142,342.5,30,342.5z"/>
	<path style="fill:#6DA8D6;" d="M30,207.5H0v15h30c4.142,0,7.5-3.357,7.5-7.5S34.142,207.5,30,207.5z"/>
	<path style="fill:#6DA8D6;" d="M30,162.5H0v15h30c4.142,0,7.5-3.357,7.5-7.5S34.142,162.5,30,162.5z"/>
	<path style="fill:#6DA8D6;" d="M30,117.5H0v15h30c4.142,0,7.5-3.357,7.5-7.5S34.142,117.5,30,117.5z"/>
	<path style="fill:#6DA8D6;" d="M37.5,80c0-4.143-3.358-7.5-7.5-7.5H0v15h30C34.142,87.5,37.5,84.143,37.5,80z"/>
	<path style="fill:#6DA8D6;" d="M30,252.5H0v15h30c4.142,0,7.5-3.357,7.5-7.5S34.142,252.5,30,252.5z"/>
</g>















</svg>
